# xmcd CD database file
# Copyright (C) 1993-1998 Ti Kan
#
# Track frame offsets:
#	150
#	12087
#	26252
#	37175
#	49905
#	62762
#	75712
#	89835
#	99797
#	110202
#	121372
#	136830
#	152205
#	164025
#	173160
#	186430
#	196990
#	210132
#	225625
#	235327
#	246005
#	254442
#	262432
#	271427
#	282517
#	298897
#	310130
#
# Disc length: 4279 seconds
#
# Revision: 1
# Processed by: cddbd v1.4b41PL1 Copyright (c) Steve Scherf et al.
# Submitted via: CDValet v3.31 - Copyright (c) 1997 Greg Leichner
#
DISCID=9610b51b
DTITLE=Bob Wills and His Texas Playboys - Swing Hi! Swing Lo!  
DTITLE=The Best fo the Tiffany Transcriptions
DYEAR=1900
DGENRE=
TTITLE0=Red River Valley
TTITLE1=Along the Navajo Trail
TTITLE2=You're From Texas
TTITLE3=New Spanish Two Step
TTITLE4=Across the Alley From the Alamo
TTITLE5=Texarkana Baby
TTITLE6=Faded Love
TTITLE7=Take Me Back to Tulsa
TTITLE8=Time Changes EverythingRoly Poly
TTITLE9=Take Me Back to Tulsa
TTITLE10=San Antonio Rose
TTITLE11=Corrine Corrina
TTITLE12=Right or Wrong
TTITLE13=Ida Red
TTITLE14=Cherokee Maiden
TTITLE15=Stay a Little Longer
TTITLE16=Maiden's Prayer
TTITLE17=Steel Guitar Rag
TTITLE18=I Can't Go On This Way
TTITLE19=Worried Mind
TTITLE20=Oklahoma Hills
TTITLE21=Sally Goodin
TTITLE22=Sioux City Sue
TTITLE23=Ten Years
TTITLE24=Don't Cry Baby
TTITLE25=If It's Wrong to Love You
TTITLE26=Sahme on You
EXTD=Music Club MCCD 143
EXTT0=
EXTT1=
EXTT2=
EXTT3=
EXTT4=
EXTT5=
EXTT6=
EXTT7=
EXTT8=
EXTT9=
EXTT10=
EXTT11=
EXTT12=
EXTT13=
EXTT14=
EXTT15=
EXTT16=
EXTT17=
EXTT18=
EXTT19=
EXTT20=
EXTT21=
EXTT22=
EXTT23=
EXTT24=
EXTT25=
EXTT26=
PLAYORDER=
